<svg width="32" height="38" viewBox="0 0 182 218" fill="none" xmlns="http://www.w3.org/2000/svg">
  <!-- Bitwarden shield shape, recolored to teal for Dynamic Checkout -->
  <path d="M179.304 2.69C177.498.887 175.358 0 172.913 0H9.086C6.613 0 4.501.887 2.695 2.69.889 4.492 0 6.627 0 9.067V118.067c0 8.125 1.584 16.193 4.751 24.207 3.168 7.986 7.113 15.084 11.81 21.295 4.696 6.184 10.28 12.229 16.783 18.107 6.502 5.878 12.503 10.731 17.977 14.613 5.502 3.882 11.226 7.542 17.2 11.008 5.974 3.466 10.225 5.795 12.726 7.015 2.5 1.22 4.53 2.191 6.03 2.828A8.42 8.42 0 0 0 90.972 218a8.42 8.42 0 0 0 3.695-.86c1.529-.665 3.529-1.608 6.058-2.828 2.5-1.22 6.752-3.577 12.726-7.015 5.974-3.466 11.698-7.126 17.2-11.008 5.501-3.882 11.503-8.762 18.005-14.613 6.502-5.878 12.087-11.896 16.783-18.107 4.696-6.211 8.614-13.282 11.81-21.295 3.167-7.986 4.75-16.055 4.75-24.207V9.095c.028-2.468-.889-4.603-2.695-6.405Z" fill="#319795"/>
  <!-- Inner half-shield (lighter teal) -->
  <path d="M158.187 119.093C158.187 158.551 91 192.545 91 192.545V23.347h67.187s0 56.113 0 95.746Z" fill="#2DD4BF" fill-opacity="0.3"/>
  <!-- Checkmark -->
  <path d="M62 112L82 132L122 88" stroke="white" stroke-width="12" stroke-linecap="round" stroke-linejoin="round"/>
</svg>
